<svg width="25" height="24" viewBox="0 0 25 24" fill="none" xmlns="http://www.w3.org/2000/svg">
<g id="info (4)">
<g id="Group">
<path id="Vector" opacity="0.993" fill-rule="evenodd" clip-rule="evenodd" d="M11.4922 1.47653C15.4807 1.25641 18.676 2.72516 21.0782 5.88278C23.2243 9.15128 23.568 12.6044 22.1094 16.2422C20.3549 19.8701 17.4721 21.9403 13.461 22.4531C9.47132 22.6961 6.27604 21.2351 3.87505 18.0703C1.72895 14.8018 1.3852 11.3486 2.8438 7.71091C4.60564 4.08243 7.48846 2.0043 11.4922 1.47653ZM11.8672 6.96091C12.6179 6.96921 12.9695 7.34421 12.9219 8.08591C12.6021 8.74464 12.1255 8.8931 11.4922 8.53122C11.12 8.14544 11.081 7.73135 11.3751 7.28903C11.5229 7.14785 11.687 7.03849 11.8672 6.96091ZM11.3516 9.82028C11.8206 9.8125 12.2894 9.82028 12.7579 9.84372C12.9348 9.91132 13.0676 10.0285 13.1563 10.1953C13.2254 11.9743 13.2489 13.7555 13.2266 15.539C13.4771 15.5313 13.7271 15.5391 13.9766 15.5625C14.4332 15.7803 14.5504 16.1163 14.3282 16.5703C14.203 16.6992 14.0546 16.7851 13.8829 16.8281C12.9922 16.8594 12.1016 16.8594 11.211 16.8281C10.8818 16.733 10.6943 16.5143 10.6485 16.1718C10.6896 15.8537 10.8615 15.6506 11.1641 15.5625C11.4136 15.5391 11.6636 15.5313 11.9141 15.539C11.9141 14.0546 11.9141 12.5703 11.9141 11.0859C11.1655 11.1869 10.8608 10.8744 11.0001 10.1484C11.097 10.0122 11.2142 9.90283 11.3516 9.82028Z" fill="#DBDCDE"/>
</g>
</g>
</svg>
