<svg width="25" height="25" viewBox="0 0 25 25" fill="none" xmlns="http://www.w3.org/2000/svg">
<g id="data-analysis 1" clip-path="url(#clip0_55_2809)">
<g id="Group">
<path id="Vector" opacity="0.968" fill-rule="evenodd" clip-rule="evenodd" d="M6.54272 0.49585C6.73022 0.49585 6.91772 0.49585 7.10522 0.49585C7.29174 0.580919 7.42454 0.721544 7.50366 0.917725C7.53493 2.07398 7.53493 3.23022 7.50366 4.38647C7.46227 4.50846 7.39196 4.61003 7.29272 4.69116C5.2343 5.53458 4.44523 7.04241 4.92554 9.2146C5.64076 10.9283 6.92982 11.7017 8.79272 11.5349C10.1904 11.2156 11.1357 10.3797 11.6287 9.0271C11.7098 8.92787 11.8114 8.85755 11.9333 8.81616C13.0896 8.7849 14.2458 8.7849 15.4021 8.81616C15.5974 8.88647 15.7302 9.01927 15.8005 9.2146C15.8001 9.91979 15.6438 10.5917 15.3318 11.2302C13.8942 14.1805 11.527 15.7118 8.23022 15.824C4.89532 15.6979 2.51251 14.1354 1.08179 11.1365C0.793195 10.4204 0.597882 9.68597 0.49585 8.93335C0.49585 8.37085 0.49585 7.80835 0.49585 7.24585C0.946022 4.19697 2.58665 2.06416 5.41772 0.847412C5.79413 0.714604 6.16913 0.597417 6.54272 0.49585ZM5.98022 2.18335C6.0271 2.18335 6.07397 2.18335 6.12085 2.18335C6.13641 2.66873 6.1208 3.1531 6.07397 3.63647C4.53587 4.4251 3.62962 5.67512 3.35522 7.38647C2.88621 7.39426 2.41746 7.38647 1.94897 7.36304C2.35668 4.90143 3.70043 3.17486 5.98022 2.18335ZM1.94897 8.8396C2.40926 8.79301 2.87801 8.7774 3.35522 8.79272C3.59674 10.3626 4.39362 11.5579 5.74585 12.3787C6.30197 12.6916 6.89574 12.887 7.5271 12.9646C7.53488 13.4336 7.5271 13.9024 7.50366 14.3708C5.04315 13.9725 3.3244 12.6288 2.34741 10.3396C2.16919 9.84507 2.03638 9.3451 1.94897 8.8396ZM12.6833 10.199C13.1677 10.199 13.6521 10.199 14.1365 10.199C13.4679 11.9848 12.2491 13.2426 10.4802 13.9724C9.98298 14.1533 9.47518 14.2861 8.95679 14.3708C8.93335 13.9024 8.92557 13.4336 8.93335 12.9646C10.6647 12.6852 11.9147 11.7633 12.6833 10.199Z" fill="#9E9E9E"/>
</g>
<g id="Group_2">
<path id="Vector_2" opacity="0.971" fill-rule="evenodd" clip-rule="evenodd" d="M9.35524 0.49585C9.54274 0.49585 9.73024 0.49585 9.91774 0.49585C13.0264 1.31547 14.9874 3.28422 15.8005 6.4021C15.9294 6.83893 15.7966 7.15922 15.4021 7.36304C14.2458 7.3943 13.0896 7.3943 11.9334 7.36304C11.8709 7.33177 11.8083 7.30055 11.7459 7.26929C11.5065 6.81399 11.2487 6.36868 10.9724 5.93335C10.7288 5.67399 10.471 5.43179 10.199 5.20679C9.81091 5.00113 9.42813 4.79019 9.05055 4.57397C9.01928 4.51148 8.98806 4.44897 8.9568 4.38647C8.92553 3.23022 8.92553 2.07398 8.9568 0.917725C9.03592 0.721544 9.16872 0.580919 9.35524 0.49585ZM10.3396 2.13647C12.1886 2.83707 13.4699 4.11051 14.1834 5.95679C13.6826 5.99579 13.1826 5.98801 12.6834 5.93335C12.1833 4.9021 11.4177 4.13648 10.3865 3.63647C10.3397 3.13745 10.324 2.63745 10.3396 2.13647Z" fill="#9E9E9E"/>
</g>
<g id="Group_3">
<path id="Vector_3" opacity="0.997" fill-rule="evenodd" clip-rule="evenodd" d="M24.4958 23.5115C24.4958 23.699 24.4958 23.8865 24.4958 24.074C24.4347 24.1437 24.3801 24.2218 24.3318 24.3084C24.2373 24.3645 24.1514 24.427 24.074 24.4959C16.3552 24.4959 8.63649 24.4959 0.917725 24.4959C0.848025 24.4347 0.7699 24.3801 0.68335 24.3318C0.62726 24.2373 0.56476 24.1514 0.49585 24.074C0.49585 23.8865 0.49585 23.699 0.49585 23.5115C0.580919 23.325 0.721544 23.1922 0.917725 23.113C1.26112 23.0896 1.60487 23.0818 1.94897 23.0896C1.94116 21.3551 1.94897 19.6208 1.97241 17.8865C2.04272 17.6912 2.17554 17.5584 2.37085 17.488C3.49585 17.4568 4.62085 17.4568 5.74585 17.488C5.94118 17.5584 6.07397 17.6912 6.14429 17.8865C6.16772 19.6208 6.17555 21.3551 6.16772 23.0896C6.63647 23.0896 7.10522 23.0896 7.57397 23.0896C7.55147 21.9448 7.57491 20.8041 7.64429 19.6677C7.72702 19.5284 7.84421 19.4268 7.99585 19.363C9.12085 19.3318 10.2458 19.3318 11.3708 19.363C11.5225 19.4268 11.6397 19.5284 11.7224 19.6677C11.7918 20.8041 11.8152 21.9448 11.7927 23.0896C12.2615 23.0896 12.7302 23.0896 13.199 23.0896C13.1911 20.7302 13.199 18.3708 13.2224 16.0115C13.2927 15.8162 13.4255 15.6834 13.6208 15.613C14.7458 15.5818 15.8708 15.5818 16.9958 15.613C17.1912 15.6834 17.324 15.8162 17.3943 16.0115C17.4177 18.3708 17.4256 20.7302 17.4177 23.0896C17.8865 23.0896 18.3552 23.0896 18.824 23.0896C18.8161 18.5427 18.824 13.9958 18.8474 9.44899C18.9177 9.25366 19.0505 9.12086 19.2458 9.05055C20.3708 9.01928 21.4958 9.01928 22.6208 9.05055C22.8162 9.12086 22.949 9.25366 23.0193 9.44899C23.0427 13.9958 23.0506 18.5427 23.0427 23.0896C23.3868 23.0818 23.7306 23.0896 24.074 23.113C24.2701 23.1922 24.4108 23.325 24.4958 23.5115ZM20.2302 10.4334C20.699 10.4334 21.1677 10.4334 21.6365 10.4334C21.6365 14.6521 21.6365 18.8709 21.6365 23.0896C21.1677 23.0896 20.699 23.0896 20.2302 23.0896C20.2302 18.8709 20.2302 14.6521 20.2302 10.4334ZM14.6052 16.9959C15.074 16.9959 15.5427 16.9959 16.0115 16.9959C16.0115 19.0271 16.0115 21.0584 16.0115 23.0896C15.5427 23.0896 15.074 23.0896 14.6052 23.0896C14.6052 21.0584 14.6052 19.0271 14.6052 16.9959ZM3.35522 18.8709C3.82397 18.8709 4.29272 18.8709 4.76147 18.8709C4.76147 20.2771 4.76147 21.6834 4.76147 23.0896C4.29272 23.0896 3.82397 23.0896 3.35522 23.0896C3.35522 21.6834 3.35522 20.2771 3.35522 18.8709ZM8.98022 20.7459C9.44897 20.7459 9.91772 20.7459 10.3865 20.7459C10.3865 21.5271 10.3865 22.3083 10.3865 23.0896C9.91772 23.0896 9.44897 23.0896 8.98022 23.0896C8.98022 22.3083 8.98022 21.5271 8.98022 20.7459Z" fill="#9E9E9E"/>
</g>
</g>
<defs>
<clipPath id="clip0_55_2809">
<rect width="24" height="24" fill="white" transform="translate(0.519287 0.519287)"/>
</clipPath>
</defs>
</svg>
