<svg width="25" height="24" viewBox="0 0 25 24" fill="none" xmlns="http://www.w3.org/2000/svg">
<g id="wallet (21)">
<g id="Group">
<path id="Vector" opacity="0.986" fill-rule="evenodd" clip-rule="evenodd" d="M6.10156 3.07031C10.5547 3.0625 15.0079 3.07031 19.4609 3.09375C20.5799 3.16614 21.3846 3.7052 21.875 4.71094C21.9595 4.93945 22.022 5.17383 22.0625 5.41406C22.0859 6.02325 22.0938 6.63263 22.0859 7.24219C20.9608 7.23436 19.8358 7.24219 18.7109 7.26563C16.6993 7.69148 15.6681 8.93367 15.6172 10.9922C15.6819 12.9862 16.6819 14.2127 18.6172 14.6719C19.7733 14.6953 20.9296 14.7031 22.0859 14.6953C22.0938 15.3205 22.0859 15.9455 22.0625 16.5703C21.799 17.8495 21.0255 18.6073 19.7422 18.8438C16.8516 18.8672 13.961 18.875 11.0703 18.8672C11.0781 17.1171 11.0703 15.3671 11.0469 13.6172C10.8623 13.0216 10.4952 12.5763 9.94531 12.2813C9.10663 11.8455 8.216 11.5799 7.27344 11.4844C5.99534 11.3451 4.72973 11.4154 3.47656 11.6953C3.46875 9.71086 3.47656 7.7265 3.5 5.74219C3.66657 4.16163 4.53376 3.271 6.10156 3.07031ZM7.03906 5.97656C8.4298 5.96873 9.82039 5.97656 11.2109 6C11.5979 6.14105 11.7464 6.41447 11.6563 6.82031C11.5659 7.05131 11.4019 7.19972 11.1641 7.26563C9.80469 7.29689 8.44531 7.29689 7.08594 7.26563C6.56558 7.09542 6.41713 6.75947 6.64063 6.25781C6.74947 6.12211 6.88227 6.02836 7.03906 5.97656Z" fill="#DBDCDE"/>
</g>
<g id="Group_2">
<path id="Vector_2" opacity="0.988" fill-rule="evenodd" clip-rule="evenodd" d="M18.7578 8.32032C19.9923 8.31249 21.2267 8.32032 22.4609 8.34376C22.6987 8.40966 22.8628 8.55807 22.9531 8.78907C22.9844 10.2578 22.9844 11.7266 22.9531 13.1953C22.849 13.3776 22.7006 13.5104 22.5078 13.5938C21.2422 13.625 19.9766 13.625 18.7109 13.5938C17.5627 13.3371 16.8986 12.6262 16.7188 11.4609C16.5089 9.8146 17.1886 8.76774 18.7578 8.32032Z" fill="#DBDCDE"/>
</g>
<g id="Group_3">
<path id="Vector_3" opacity="0.974" fill-rule="evenodd" clip-rule="evenodd" d="M5.25781 12.4922C6.56305 12.4072 7.82867 12.587 9.05469 13.0312C9.39983 13.1892 9.68886 13.4157 9.92187 13.7109C10.0872 14.215 9.93875 14.5978 9.47656 14.8594C8.74615 15.253 7.96489 15.4874 7.13281 15.5625C5.68794 15.738 4.28171 15.5818 2.91406 15.0937C2.60147 14.953 2.32803 14.7577 2.09375 14.5078C1.9375 14.211 1.9375 13.914 2.09375 13.6172C2.61385 13.1255 3.23103 12.8208 3.94531 12.7031C4.38647 12.6123 4.82397 12.542 5.25781 12.4922Z" fill="#DBDCDE"/>
</g>
<g id="Group_4">
<path id="Vector_4" opacity="0.961" fill-rule="evenodd" clip-rule="evenodd" d="M1.97656 15.8203C3.23633 16.4364 4.57226 16.7333 5.98437 16.7109C7.38059 16.7396 8.70091 16.4427 9.94531 15.8203C9.99992 16.1787 10.0077 16.5381 9.96874 16.8984C9.85432 17.1847 9.65899 17.3957 9.38281 17.5312C8.48098 17.9679 7.52787 18.2023 6.52343 18.2344C5.33468 18.3145 4.17843 18.1583 3.05468 17.7656C2.60461 17.6117 2.25305 17.3383 1.99999 16.9453C1.97657 16.5706 1.96876 16.1956 1.97656 15.8203Z" fill="#DBDCDE"/>
</g>
<g id="Group_5">
<path id="Vector_5" opacity="0.961" fill-rule="evenodd" clip-rule="evenodd" d="M1.97656 18.4453C3.613 19.2093 5.33177 19.4827 7.13281 19.2656C8.12641 19.1813 9.06391 18.9079 9.94531 18.4453C10.2016 19.2225 9.98285 19.8084 9.28906 20.2031C8.23141 20.6712 7.12202 20.8977 5.96093 20.8828C5.01547 20.876 4.09359 20.7276 3.19531 20.4375C2.87769 20.3178 2.58081 20.1615 2.30468 19.9688C2.16202 19.8472 2.06046 19.6988 1.99999 19.5234C1.97657 19.1644 1.96876 18.805 1.97656 18.4453Z" fill="#DBDCDE"/>
</g>
</g>
</svg>
