<svg width="25" height="24" viewBox="0 0 25 24" fill="none" xmlns="http://www.w3.org/2000/svg">
<g id="qna">
<g id="Group">
<path id="Vector" opacity="0.991" fill-rule="evenodd" clip-rule="evenodd" d="M10.6485 3.25781C11.5549 3.25 12.4612 3.25781 13.3672 3.28125C16.2849 3.51696 18.6052 4.80605 20.3282 7.14844C22.0413 9.87365 22.26 12.7174 20.9844 15.6797C20.8141 16.0138 20.6345 16.3419 20.4454 16.6641C21.2657 17.6172 22.086 18.5703 22.9063 19.5234C23.1067 20.0674 22.9427 20.4502 22.4141 20.6719C18.3204 20.7031 14.2266 20.7031 10.1329 20.6719C6.69426 20.3411 4.21769 18.6301 2.70319 15.5391C1.38688 12.2717 1.80875 9.25612 3.96881 6.49219C5.7585 4.51534 7.98506 3.43721 10.6485 3.25781ZM11.6329 7.52344C13.4025 7.53548 14.3713 8.41833 14.5391 10.1719C14.4907 11.3 13.9594 12.1125 12.9454 12.6094C12.6675 12.8489 12.5347 13.1536 12.5469 13.5234C12.3599 13.9723 12.0396 14.1051 11.586 13.9219C11.2588 13.6335 11.1728 13.2819 11.3282 12.8672C11.4669 12.3068 11.7716 11.8615 12.2422 11.5312C13.1972 11.1038 13.4707 10.4085 13.0626 9.44531C12.544 8.7983 11.9112 8.66545 11.1641 9.04687C10.7465 9.39014 10.5355 9.83545 10.5313 10.3828C10.3673 10.7343 10.0938 10.8672 9.711 10.7812C9.40509 10.6385 9.26447 10.3963 9.28912 10.0547C9.37228 9.06787 9.84103 8.3257 10.6954 7.82812C10.9997 7.68239 11.3122 7.58081 11.6329 7.52344ZM11.8204 15.1172C12.474 15.1902 12.685 15.534 12.4532 16.1484C12.165 16.4661 11.8447 16.5051 11.4922 16.2656C11.2193 15.9791 11.1959 15.6744 11.4219 15.3516C11.5477 15.2538 11.6805 15.1757 11.8204 15.1172Z" fill="#DBDCDE"/>
</g>
</g>
</svg>
