<svg width="25" height="25" viewBox="0 0 25 25" fill="none" xmlns="http://www.w3.org/2000/svg">
<g id="home (7) 1" clip-path="url(#clip0_55_2798)">
<g id="Group">
<path id="Vector" opacity="0.993" fill-rule="evenodd" clip-rule="evenodd" d="M12.3925 0.43811C12.705 0.43811 13.0174 0.43811 13.33 0.43811C13.6794 0.550336 14.0075 0.714398 14.3143 0.930298C17.6659 4.28186 21.0175 7.63342 24.369 10.985C24.5849 11.2918 24.749 11.6199 24.8612 11.9694C24.8612 12.2819 24.8612 12.5943 24.8612 12.9069C24.4755 14.1345 23.6318 14.7282 22.33 14.6881C22.3516 17.2517 22.3281 19.8142 22.2596 22.3756C21.9724 23.4832 21.2771 24.1707 20.1737 24.4381C18.6581 24.4381 17.1424 24.4381 15.6268 24.4381C15.426 24.3386 15.2775 24.1824 15.1815 23.9694C15.1803 21.8895 15.149 19.8114 15.0878 17.735C14.9736 17.3865 14.7471 17.1443 14.4081 17.0084C13.895 16.9559 13.3794 16.9325 12.8612 16.9381C12.343 16.9325 11.8274 16.9559 11.3143 17.0084C10.9214 17.1924 10.6792 17.497 10.5878 17.9225C10.5722 19.9381 10.5565 21.9537 10.5409 23.9694C10.4461 24.1812 10.2977 24.3375 10.0956 24.4381C8.56432 24.4381 7.0331 24.4381 5.50183 24.4381C4.44509 24.1548 3.7654 23.483 3.46277 22.4225C3.39427 19.8454 3.37083 17.2673 3.39246 14.6881C2.08955 14.7268 1.2458 14.1331 0.861206 12.9069C0.861206 12.5943 0.861206 12.2819 0.861206 11.9694C0.957696 11.611 1.12176 11.2828 1.35339 10.985C4.70496 7.63342 8.05652 4.28186 11.4081 0.930298C11.7149 0.714398 12.043 0.550336 12.3925 0.43811Z" fill="#DBDCDE"/>
</g>
</g>
<defs>
<clipPath id="clip0_55_2798">
<rect width="24" height="24" fill="white" transform="translate(0.884644 0.461548)"/>
</clipPath>
</defs>
</svg>
