<svg width="25" height="24" viewBox="0 0 25 24" fill="none" xmlns="http://www.w3.org/2000/svg">
<g id="attachment">
<g id="Group">
<path id="Vector" opacity="0.991" fill-rule="evenodd" clip-rule="evenodd" d="M10.461 1.47655C12.9575 1.29122 14.8715 2.24434 16.2032 4.33592C17.3488 6.58062 17.2081 8.73687 15.7813 10.8047C14.1459 12.73 12.0912 13.4097 9.61721 12.8437C7.24857 12.0687 5.85015 10.4515 5.4219 7.99217C5.21856 5.51623 6.14828 3.60218 8.21096 2.24998C8.92014 1.8548 9.67014 1.59699 10.461 1.47655Z" fill="#DBDCDE"/>
</g>
<g id="Group_2">
<path id="Vector_2" opacity="0.988" fill-rule="evenodd" clip-rule="evenodd" d="M7.41402 13.3359C7.74959 13.4566 8.07772 13.6051 8.39839 13.7812C10.6181 14.6576 12.7665 14.5091 14.8437 13.3359C15.8233 13.6771 16.6828 14.2083 17.4218 14.9297C17.4508 14.9742 17.443 15.0132 17.3984 15.0469C17.1355 15.2004 16.8855 15.3723 16.6484 15.5625C15.5937 16.6172 14.539 17.6719 13.4843 18.7266C12.5623 19.8766 12.4451 21.1032 13.1328 22.4062C10.1166 22.6047 7.12447 22.4094 4.1562 21.8203C3.52604 21.6278 3.16666 21.2059 3.07808 20.5547C2.81422 17.6688 3.88453 15.4423 6.28902 13.875C6.66256 13.6803 7.03756 13.5006 7.41402 13.3359Z" fill="#DBDCDE"/>
</g>
<g id="Group_3">
<path id="Vector_3" opacity="0.954" fill-rule="evenodd" clip-rule="evenodd" d="M19.4141 15.7266C21.3375 15.7984 22.3843 16.7906 22.5547 18.7031C22.5563 19.3704 22.361 19.9719 21.9688 20.5078C21.1172 21.3594 20.2657 22.2109 19.4141 23.0625C18.8094 23.3071 18.45 23.1118 18.336 22.4766C18.3264 22.3221 18.3654 22.1815 18.4532 22.0547C19.2344 21.2734 20.0157 20.4922 20.7969 19.7109C21.3329 18.8808 21.2469 18.123 20.5391 17.4375C19.8985 17.0312 19.2579 17.0312 18.6172 17.4375C17.5626 18.4922 16.5079 19.5469 15.4532 20.6016C15.3208 20.9078 15.4068 21.1343 15.711 21.2812C15.8402 21.3086 15.9652 21.293 16.086 21.2344C17.1967 20.1081 18.3217 18.9987 19.461 17.9062C20.0518 17.7248 20.3955 17.9357 20.4922 18.5391C20.478 18.7085 20.4233 18.8647 20.3282 19.0078C19.177 20.1903 17.9973 21.3387 16.7891 22.4531C15.8786 22.8744 15.0739 22.726 14.3751 22.0078C13.8864 21.2931 13.8552 20.5587 14.2813 19.8047C15.3816 18.6576 16.4987 17.5247 17.6329 16.4062C18.1652 16.0076 18.7589 15.781 19.4141 15.7266Z" fill="#DBDCDE"/>
</g>
</g>
</svg>
