<svg width="25" height="24" viewBox="0 0 25 24" fill="none" xmlns="http://www.w3.org/2000/svg">
<g id="wallet (22)">
<g id="Group">
<path id="Vector" opacity="0.988" fill-rule="evenodd" clip-rule="evenodd" d="M5.3046 4.05469C9.78899 4.04687 14.2734 4.05469 18.7577 4.07813C20.1811 4.25155 21.0327 5.04061 21.3124 6.44531C21.3359 7.03884 21.3437 7.63261 21.3359 8.22656C20.2264 8.21874 19.117 8.22656 18.0077 8.25C16.7889 8.41786 15.8748 9.03506 15.2655 10.1016C14.8671 11.0024 14.7577 11.9399 14.9374 12.9141C15.2637 14.2091 16.0527 15.0919 17.3046 15.5625C17.5346 15.6317 17.7689 15.6786 18.0077 15.7031C19.117 15.7266 20.2264 15.7344 21.3359 15.7266C21.3437 16.3205 21.3359 16.9143 21.3124 17.5078C21.0388 18.8907 20.2029 19.6798 18.8046 19.875C15.5545 19.914 12.3045 19.9063 9.0546 19.8516C10.6922 18.1976 10.9969 16.3226 9.96866 14.2266C8.79013 12.4373 7.14173 11.742 5.02335 12.1406C4.12923 12.3805 3.37142 12.8415 2.74991 13.5234C2.70386 11.037 2.71948 8.55258 2.79679 6.07031C3.20174 4.85677 4.03767 4.18491 5.3046 4.05469Z" fill="#DBDCDE"/>
</g>
<g id="Group_2">
<path id="Vector_2" opacity="0.986" fill-rule="evenodd" clip-rule="evenodd" d="M18.0546 9.30469C19.2735 9.29687 20.4922 9.30469 21.7109 9.32813C21.9487 9.39404 22.1127 9.54244 22.2031 9.77344C22.2343 11.2422 22.2343 12.711 22.2031 14.1797C22.1127 14.4107 21.9487 14.5591 21.7109 14.625C20.4921 14.6563 19.2734 14.6563 18.0546 14.625C17.1844 14.4906 16.5516 14.0296 16.1562 13.2422C16.0646 13.0321 16.0021 12.8134 15.9687 12.5859C15.7515 11.4759 16.0562 10.5462 16.8827 9.79688C17.2409 9.54502 17.6315 9.38096 18.0546 9.30469Z" fill="#DBDCDE"/>
</g>
<g id="Group_3">
<path id="Vector_3" opacity="0.971" fill-rule="evenodd" clip-rule="evenodd" d="M5.58588 13.1015C7.30455 12.9643 8.53113 13.6675 9.26557 15.2109C9.81602 16.9973 9.32383 18.4114 7.78901 19.4531C6.11458 20.2276 4.65364 19.9385 3.40619 18.5859C2.68271 17.5444 2.52646 16.4194 2.93744 15.2109C3.46952 14.0611 4.35233 13.358 5.58588 13.1015ZM5.91401 14.6953C6.33944 14.629 6.61286 14.8009 6.73432 15.2109C6.75771 15.4135 6.76554 15.6166 6.75776 15.8203C7.1749 15.7377 7.52646 15.8471 7.81244 16.1484C7.97899 16.521 7.89307 16.8257 7.55463 17.0625C7.29344 17.1258 7.02785 17.1493 6.75776 17.1328C6.77421 17.4029 6.75077 17.6685 6.68744 17.9297C6.37671 18.3551 6.01732 18.4019 5.60932 18.0703C5.45974 17.7773 5.40508 17.4648 5.44526 17.1328C5.17518 17.1493 4.90955 17.1258 4.64838 17.0625C4.32067 16.8313 4.23473 16.5266 4.39057 16.1484C4.67655 15.8471 5.02811 15.7377 5.44526 15.8203C5.42936 15.5658 5.4528 15.3157 5.51557 15.0703C5.61391 14.9014 5.74676 14.7764 5.91401 14.6953Z" fill="#DBDCDE"/>
</g>
</g>
</svg>
