<svg width="12" height="12" viewBox="0 0 12 12" fill="none" xmlns="http://www.w3.org/2000/svg">
<g id="unlock (1) 1" clip-path="url(#clip0_137_68)">
<g id="Group">
<path id="Vector" opacity="0.988" fill-rule="evenodd" clip-rule="evenodd" d="M4.87452 -0.0198726C6.0054 -0.106321 6.92874 0.28451 7.64455 1.15262C8.09012 1.75236 8.28552 2.42654 8.23079 3.17518C8.03713 3.67991 7.68048 3.85089 7.16089 3.68815C6.81465 3.48167 6.6632 3.17389 6.70655 2.76481C6.52985 1.98263 6.0413 1.5625 5.24093 1.50437C4.44835 1.5545 3.9598 1.96487 3.77531 2.73549C3.76065 3.31189 3.75575 3.88838 3.76065 4.46493C5.1391 4.45144 6.51678 4.4661 7.8937 4.5089C8.90853 4.73226 9.51919 5.35271 9.72573 6.37023C9.75428 7.67085 9.74449 8.97039 9.69641 10.2688C9.52889 10.9538 9.13318 11.4571 8.50926 11.7784C8.29452 11.8785 8.06981 11.9469 7.83508 11.9836C6.36814 12.0123 4.90252 12.0026 3.43821 11.9542C3.08183 11.7547 2.92061 11.4469 2.95456 11.0309C2.81934 10.3681 2.42362 9.9528 1.76741 9.78513C1.60106 9.76772 1.43494 9.7482 1.26909 9.7265C0.969241 9.62095 0.78848 9.41087 0.726815 9.09629C0.707273 8.25599 0.707273 7.41572 0.726815 6.57542C0.795705 5.83651 1.1328 5.25516 1.73809 4.83133C1.89049 4.72581 2.05657 4.65253 2.2364 4.61149C2.23151 3.92745 2.2364 3.24351 2.25106 2.55962C2.45692 1.42573 3.08714 0.629409 4.14171 0.170658C4.38389 0.0832836 4.62815 0.0197724 4.87452 -0.0198726ZM5.10902 6.75129C5.61715 6.7367 5.90538 6.98099 5.97374 7.48411C6.00035 8.0518 5.99056 8.61852 5.94443 9.18423C5.75973 9.64056 5.4324 9.80178 4.96246 9.66788C4.70867 9.54673 4.55722 9.34644 4.50812 9.06698C4.48021 8.46944 4.48997 7.87343 4.53743 7.27892C4.64058 7.00464 4.83111 6.82877 5.10902 6.75129Z" fill="#B1B896"/>
</g>
<g id="Group_2">
<path id="Vector_2" opacity="0.967" fill-rule="evenodd" clip-rule="evenodd" d="M10.2972 -0.019661C10.8613 -0.0709518 11.1838 0.183087 11.2645 0.742462C11.2543 0.914766 11.2005 1.0711 11.1032 1.21146C10.8052 1.50948 10.5072 1.80747 10.2092 2.10549C9.89654 2.28136 9.58389 2.28136 9.27122 2.10549C8.94766 1.79135 8.89394 1.4347 9.11 1.03559C9.41778 0.727805 9.72556 0.420025 10.0333 0.112245C10.124 0.0669308 10.2119 0.0229622 10.2972 -0.019661Z" fill="#B1B896"/>
</g>
<g id="Group_3">
<path id="Vector_3" opacity="0.965" fill-rule="evenodd" clip-rule="evenodd" d="M9.59346 2.9701C9.93556 2.9652 10.2776 2.9701 10.6194 2.98475C11.0692 3.09758 11.2792 3.38581 11.2496 3.84947C11.1817 4.17141 10.9912 4.38146 10.678 4.47969C10.297 4.49924 9.91589 4.49924 9.53483 4.47969C9.10233 4.32342 8.92156 4.01564 8.99255 3.55635C9.09377 3.25478 9.29406 3.05935 9.59346 2.9701Z" fill="#B1B896"/>
</g>
<g id="Group_4">
<path id="Vector_4" opacity="0.955" fill-rule="evenodd" clip-rule="evenodd" d="M1.35702 10.4741C2.01549 10.4829 2.30372 10.8151 2.22173 11.4707C1.99755 11.9564 1.63115 12.1078 1.12252 11.9251C0.694016 11.6132 0.610962 11.2272 0.873364 10.7672C1.00313 10.6122 1.16435 10.5145 1.35702 10.4741Z" fill="#B1B896"/>
</g>
</g>
<defs>
<clipPath id="clip0_137_68">
<rect width="12" height="12" fill="white"/>
</clipPath>
</defs>
</svg>
