<svg width="25" height="25" viewBox="0 0 25 25" fill="none" xmlns="http://www.w3.org/2000/svg">
<g id="medical-records 1" clip-path="url(#clip0_55_2803)">
<g id="Group">
<path id="Vector" opacity="0.99" fill-rule="evenodd" clip-rule="evenodd" d="M4.24585 0.49585C8.18335 0.49585 12.1208 0.49585 16.0583 0.49585C17.726 2.09314 19.3745 3.71814 21.0037 5.37085C21.1544 5.62866 21.2091 5.90991 21.1677 6.2146C22.8622 5.99143 23.9716 6.6789 24.4958 8.2771C24.4958 12.9959 24.4958 17.7146 24.4958 22.4333C24.199 23.5115 23.5115 24.199 22.4333 24.4958C15.8084 24.4958 9.18333 24.4958 2.55835 24.4958C1.48022 24.199 0.792724 23.5115 0.49585 22.4333C0.49585 17.4021 0.49585 12.3708 0.49585 7.3396C1.02012 5.7414 2.12949 5.05391 3.82397 5.2771C3.81617 3.82389 3.82397 2.37077 3.84741 0.917725C3.92653 0.721544 4.05934 0.580919 4.24585 0.49585ZM5.23022 1.9021C8.51147 1.9021 11.7927 1.9021 15.074 1.9021C15.0661 3.05845 15.074 4.21471 15.0974 5.37085C15.2822 6.00877 15.6962 6.40721 16.3396 6.56616C17.4801 6.5896 18.6207 6.59743 19.7615 6.5896C19.7615 7.40208 19.7615 8.21462 19.7615 9.0271C17.4958 9.03493 15.2302 9.0271 12.9646 9.00366C12.506 8.07854 12.0294 7.16447 11.5349 6.26147C11.1275 5.75672 10.6041 5.43643 9.9646 5.30054C8.38655 5.2771 6.80841 5.26927 5.23022 5.2771C5.23022 4.1521 5.23022 3.0271 5.23022 1.9021ZM16.4802 2.98022C17.2208 3.69733 17.9551 4.42389 18.6833 5.15991C17.977 5.20448 17.2739 5.18885 16.574 5.11304C16.5416 5.063 16.5181 5.00831 16.5037 4.94897C16.4802 4.29291 16.4724 3.63666 16.4802 2.98022ZM3.07397 6.68335C5.19903 6.67552 7.32404 6.68335 9.44897 6.70679C9.84929 6.71551 10.1696 6.87957 10.4099 7.19897C10.9154 8.23341 11.4388 9.25683 11.9802 10.2693C12.0584 10.3162 12.1365 10.363 12.2146 10.4099C15.449 10.4255 18.6833 10.4412 21.9177 10.4568C22.613 10.5271 22.9958 10.9099 23.0662 11.6052C23.0974 15.0427 23.0974 18.4802 23.0662 21.9177C22.9958 22.613 22.613 22.9958 21.9177 23.0662C15.6365 23.0974 9.35522 23.0974 3.07397 23.0662C2.37866 22.9958 1.99585 22.613 1.92554 21.9177C1.89429 17.2302 1.89429 12.5427 1.92554 7.85522C2.00419 7.15941 2.387 6.7688 3.07397 6.68335ZM21.1677 7.62085C21.6803 7.56563 22.1647 7.65155 22.6208 7.87866C23.0203 8.25882 23.1609 8.71974 23.0427 9.26147C22.8479 9.16786 22.6448 9.09755 22.4333 9.05054C22.0118 9.0271 21.5899 9.01932 21.1677 9.0271C21.1677 8.55835 21.1677 8.0896 21.1677 7.62085Z" fill="#9E9E9E"/>
</g>
<g id="Group_2">
<path id="Vector_2" opacity="0.992" fill-rule="evenodd" clip-rule="evenodd" d="M10.8084 12.3083C11.9688 12.2858 13.1251 12.3092 14.2771 12.3787C14.4165 12.4614 14.518 12.5786 14.5818 12.7302C14.6052 13.3707 14.6131 14.0113 14.6052 14.6521C15.2461 14.6443 15.8867 14.6521 16.5271 14.6755C16.7224 14.7458 16.8552 14.8786 16.9255 15.074C16.9568 16.199 16.9568 17.324 16.9255 18.449C16.8552 18.6443 16.7224 18.7771 16.5271 18.8474C15.8867 18.8708 15.2461 18.8787 14.6052 18.8708C14.6131 19.5117 14.6052 20.1523 14.5818 20.7927C14.5115 20.988 14.3787 21.1208 14.1834 21.1912C13.0584 21.2224 11.9334 21.2224 10.8084 21.1912C10.613 21.1208 10.4802 20.988 10.4099 20.7927C10.3865 20.1523 10.3787 19.5117 10.3865 18.8708C9.74566 18.8787 9.10506 18.8708 8.46461 18.8474C8.26928 18.7771 8.13649 18.6443 8.06617 18.449C8.03491 17.324 8.03491 16.199 8.06617 15.074C8.13649 14.8786 8.26928 14.7458 8.46461 14.6755C9.10506 14.6521 9.74566 14.6443 10.3865 14.6521C10.3787 14.0113 10.3865 13.3707 10.4099 12.7302C10.489 12.534 10.6218 12.3934 10.8084 12.3083ZM11.7927 13.7146C11.8006 14.3554 11.7927 14.996 11.7693 15.6365C11.699 15.8318 11.5662 15.9646 11.3709 16.0349C10.7304 16.0583 10.0898 16.0662 9.44899 16.0583C9.44899 16.5271 9.44899 16.9958 9.44899 17.4646C10.0898 17.4568 10.7304 17.4646 11.3709 17.488C11.5662 17.5583 11.699 17.6911 11.7693 17.8865C11.7927 18.5269 11.8006 19.1675 11.7927 19.8083C12.2615 19.8083 12.7302 19.8083 13.199 19.8083C13.1912 19.1675 13.199 18.5269 13.2224 17.8865C13.2927 17.6911 13.4255 17.5583 13.6209 17.488C14.2613 17.4646 14.9019 17.4568 15.5427 17.4646C15.5427 16.9958 15.5427 16.5271 15.5427 16.0583C14.9019 16.0662 14.2613 16.0583 13.6209 16.0349C13.4255 15.9646 13.2927 15.8318 13.2224 15.6365C13.199 14.996 13.1912 14.3554 13.199 13.7146C12.7302 13.7146 12.2615 13.7146 11.7927 13.7146Z" fill="#9E9E9E"/>
</g>
</g>
<defs>
<clipPath id="clip0_55_2803">
<rect width="24" height="24" fill="white" transform="translate(0.519287 0.519287)"/>
</clipPath>
</defs>
</svg>
