<svg width="25" height="24" viewBox="0 0 25 24" fill="none" xmlns="http://www.w3.org/2000/svg">
<g id="security-shield">
<g id="Group">
<path id="Vector" opacity="0.993" fill-rule="evenodd" clip-rule="evenodd" d="M12.1017 1.47655C12.3717 1.46011 12.6373 1.48355 12.8985 1.54686C14.9502 3.19688 17.294 4.18126 19.9298 4.49999C20.5692 4.5754 21.2098 4.6379 21.8517 4.68749C22.3177 4.82539 22.6068 5.13008 22.7188 5.60155C22.9058 7.29556 22.8589 8.98306 22.5782 10.664C22.5401 10.9416 22.4698 11.2072 22.3673 11.4609C21.045 9.99496 19.4981 9.70588 17.7267 10.5937C16.8619 11.1621 16.3072 11.9512 16.0626 12.9609C16.0079 13.5061 15.9767 14.053 15.9688 14.6015C15.4793 15.0025 15.198 15.5181 15.1251 16.1484C15.0938 17.2265 15.0938 18.3047 15.1251 19.3828C15.2221 19.9676 15.4799 20.4675 15.8985 20.8828C14.9317 21.5537 13.8848 22.0771 12.7579 22.4531C12.5391 22.4844 12.3204 22.4844 12.1017 22.4531C7.31159 20.6485 4.16318 17.2969 2.65634 12.3984C2.02902 10.1518 1.85715 7.87053 2.14072 5.55467C2.27353 5.10936 2.56259 4.82028 3.00791 4.68749C4.84106 4.60835 6.6223 4.2646 8.35166 3.65624C9.57242 3.17903 10.6818 2.52278 11.6798 1.68749C11.8247 1.61502 11.9653 1.54471 12.1017 1.47655Z" fill="#DBDCDE"/>
</g>
<g id="Group_2">
<path id="Vector_2" opacity="0.98" fill-rule="evenodd" clip-rule="evenodd" d="M19.0859 11.1797C20.5987 11.0487 21.5752 11.7049 22.0156 13.1484C22.077 13.8501 22.1004 14.5532 22.0859 15.2578C22.5191 15.355 22.7925 15.6206 22.9063 16.0547C22.9375 17.1953 22.9375 18.3359 22.9063 19.4766C22.7891 19.9063 22.5157 20.1797 22.0859 20.2969C20.4141 20.3281 18.7422 20.3281 17.0703 20.2969C16.5837 20.154 16.2946 19.8337 16.2031 19.3359C16.1719 18.2891 16.1719 17.2422 16.2031 16.1953C16.2994 15.7084 16.5807 15.3803 17.0469 15.2109C17.0516 14.4903 17.0828 13.7716 17.1406 13.0547C17.4311 12.0532 18.0795 11.4282 19.0859 11.1797ZM19.4609 12.5391C20.1213 12.5524 20.5198 12.8805 20.6563 13.5234C20.6797 14.0701 20.6875 14.617 20.6797 15.1641C19.9453 15.1641 19.211 15.1641 18.4766 15.1641C18.4687 14.5857 18.4766 14.0076 18.5 13.4297C18.6498 12.9438 18.9702 12.6469 19.4609 12.5391Z" fill="#DBDCDE"/>
</g>
</g>
</svg>
