<svg width="25" height="24" viewBox="0 0 25 24" fill="none" xmlns="http://www.w3.org/2000/svg">
<g id="question-mark">
<g id="Group">
<path id="Vector" opacity="0.976" fill-rule="evenodd" clip-rule="evenodd" d="M16.6953 1.47656C17.087 1.38062 17.376 1.50562 17.5625 1.85156C17.5859 2.66391 17.5938 3.47641 17.5859 4.28906C18.5392 4.28125 19.4923 4.28906 20.4453 4.3125C21.6529 4.64145 22.3013 5.43051 22.3906 6.67968C22.3985 7.96092 22.4062 9.2422 22.4141 10.5234C22.42 11.9619 22.3965 13.3994 22.3438 14.8359C22.1697 15.6428 21.7087 16.2209 20.9609 16.5703C20.9219 14.1017 20.8985 11.633 20.8906 9.16406C20.4975 7.16151 19.2866 6.05995 17.2578 5.85937C13.3359 5.84376 9.41408 5.8281 5.49219 5.8125C5.80058 5.08218 6.33186 4.59779 7.08594 4.35937C9.11539 4.29812 11.1467 4.26688 13.1797 4.26562C14.3603 3.34231 15.5322 2.41263 16.6953 1.47656Z" fill="#DBDCDE"/>
</g>
<g id="Group_2">
<path id="Vector_2" opacity="0.988" fill-rule="evenodd" clip-rule="evenodd" d="M4.78898 7.14844C8.99212 7.14062 13.1953 7.14844 17.3984 7.17188C18.5728 7.34626 19.2993 8.01033 19.578 9.16407C19.6093 12.0078 19.6093 14.8516 19.578 17.6953C19.2733 18.9372 18.4842 19.6013 17.2109 19.6875C15.3827 19.7031 13.5546 19.7188 11.7265 19.7344C10.5702 20.6406 9.41399 21.5469 8.25773 22.4531C7.86637 22.5723 7.57729 22.4551 7.39054 22.1016C7.3671 21.3048 7.35927 20.508 7.3671 19.7109C6.57009 19.7188 5.77321 19.7109 4.97648 19.6875C3.72211 19.605 2.93304 18.9565 2.60929 17.7422C2.55651 16.3057 2.53307 14.8682 2.53898 13.4297C2.53307 11.9912 2.55651 10.5537 2.60929 9.11719C2.91686 7.98901 3.64342 7.33276 4.78898 7.14844ZM10.8359 9.72657C11.9028 9.69319 12.6762 10.1463 13.1562 11.0859C13.5306 12.152 13.2884 13.0504 12.4296 13.7813C12.214 13.8851 12.0187 14.0179 11.8437 14.1797C11.7698 14.4317 11.6917 14.6817 11.6093 14.9297C11.1594 15.3251 10.7844 15.2626 10.4843 14.7422C10.3992 14.1921 10.5398 13.7077 10.9062 13.2891C11.2361 13.023 11.5642 12.7573 11.8905 12.4922C12.1863 11.8272 12.0066 11.3506 11.3515 11.0625C10.9076 10.9655 10.556 11.0983 10.2968 11.4609C10.1902 11.7546 10.0965 12.0514 10.0155 12.3516C9.5841 12.7588 9.2091 12.7119 8.89054 12.2109C8.80495 11.2963 9.1409 10.5854 9.89835 10.0781C10.1973 9.9084 10.5098 9.79121 10.8359 9.72657ZM10.9296 15.8203C11.6159 15.8653 11.8425 16.2091 11.6093 16.8516C11.1826 17.2508 10.8076 17.2039 10.4843 16.7109C10.3867 16.281 10.5352 15.9841 10.9296 15.8203Z" fill="#DBDCDE"/>
</g>
</g>
</svg>
