<svg width="25" height="24" viewBox="0 0 25 24" fill="none" xmlns="http://www.w3.org/2000/svg">
<g id="file-lock">
<g id="Group">
<path id="Vector" opacity="0.979" fill-rule="evenodd" clip-rule="evenodd" d="M6.42964 1.47656C6.6484 1.47656 6.86712 1.47656 7.08589 1.47656C7.09372 2.85165 7.08589 4.22665 7.06245 5.60156C6.92923 6.0473 6.64015 6.33633 6.19526 6.46875C4.80472 6.49219 3.4141 6.50002 2.02339 6.49219C2.00603 5.74791 2.2326 5.09166 2.70307 4.52344C3.50776 3.71875 4.31245 2.91406 5.11714 2.10938C5.51576 1.80844 5.95325 1.5975 6.42964 1.47656Z" fill="#DBDCDE"/>
</g>
<g id="Group_2">
<path id="Vector_2" opacity="0.992" fill-rule="evenodd" clip-rule="evenodd" d="M8.16406 1.47656C11.6329 1.46875 15.1016 1.47656 18.5703 1.5C19.86 1.8053 20.6178 2.60998 20.8438 3.91406C20.8672 6.77339 20.875 9.63277 20.8672 12.4922C19.0023 11.9132 17.5257 12.4289 16.4375 14.0391C16.2316 14.4225 16.091 14.8287 16.0156 15.2578C15.9727 15.773 15.9336 16.2886 15.8984 16.8047C15.485 17.1466 15.2272 17.5842 15.125 18.1172C15.0937 19.3203 15.0937 20.5234 15.125 21.7266C15.1722 21.9935 15.2737 22.2357 15.4297 22.4531C11.7266 22.4844 8.02344 22.4844 4.32031 22.4531C2.98949 22.1379 2.23168 21.3019 2.04688 19.9453C2.02344 15.8204 2.01562 11.6954 2.02344 7.57031C3.46102 7.57814 4.89852 7.57031 6.33594 7.54688C7.32144 7.28011 7.92299 6.6473 8.14063 5.64844C8.16406 4.2579 8.17189 2.86727 8.16406 1.47656ZM6.85156 12.0703C8.85163 12.0625 10.8516 12.0703 12.8516 12.0938C13.3431 12.2878 13.4759 12.6237 13.25 13.1016C13.1516 13.2406 13.0187 13.3266 12.8516 13.3594C10.8515 13.3906 8.85158 13.3906 6.85156 13.3594C6.36969 13.164 6.23689 12.8281 6.45313 12.3516C6.56197 12.2159 6.69477 12.1221 6.85156 12.0703ZM6.85156 16.1484C8.02353 16.1406 9.19541 16.1484 10.3672 16.1719C10.7653 16.3039 10.9293 16.5773 10.8594 16.9922C10.769 17.2232 10.605 17.3716 10.3672 17.4375C9.19531 17.4688 8.02344 17.4688 6.85156 17.4375C6.36969 17.2422 6.23689 16.9062 6.45313 16.4297C6.56197 16.294 6.69477 16.2002 6.85156 16.1484Z" fill="#DBDCDE"/>
</g>
<g id="Group_3">
<path id="Vector_3" opacity="0.983" fill-rule="evenodd" clip-rule="evenodd" d="M19.1328 13.3359C20.7285 13.2531 21.6895 13.9875 22.0156 15.5391C22.0391 16.1639 22.0469 16.7889 22.0391 17.4141C22.5292 17.5372 22.8183 17.8497 22.9063 18.3516C22.9375 19.3984 22.9375 20.4453 22.9063 21.4922C22.8179 21.9711 22.5445 22.2914 22.0859 22.4531C20.3984 22.4844 18.7109 22.4844 17.0234 22.4531C16.5937 22.3359 16.3203 22.0625 16.2031 21.6328C16.1719 20.4922 16.1719 19.3516 16.2031 18.2109C16.3169 17.7769 16.5903 17.5112 17.0234 17.4141C17.0079 16.7094 17.0313 16.0063 17.0938 15.3047C17.3862 14.2388 18.0659 13.5825 19.1328 13.3359ZM19.2266 14.7422C19.9207 14.6482 20.3817 14.9295 20.6094 15.5859C20.6328 16.1795 20.6407 16.7732 20.6328 17.3672C19.8984 17.3672 19.1641 17.3672 18.4297 17.3672C18.4098 16.7394 18.4332 16.1144 18.5 15.4922C18.6247 15.1254 18.8668 14.8754 19.2266 14.7422Z" fill="#DBDCDE"/>
</g>
</g>
</svg>
