<svg width="25" height="25" viewBox="0 0 25 25" fill="none" xmlns="http://www.w3.org/2000/svg">
<g id="user (7) 1" clip-path="url(#clip0_55_2817)">
<g id="Group">
<path id="Vector" opacity="0.962" fill-rule="evenodd" clip-rule="evenodd" d="M11.6052 0.49585C12.0895 0.49585 12.5739 0.49585 13.0583 0.49585C15.416 0.907876 17.0175 2.236 17.863 4.48022C18.6017 7.45341 17.6876 9.75807 15.1208 11.3943C13.4524 12.2095 11.7493 12.2877 10.0114 11.6287C7.51738 10.3813 6.36894 8.35787 6.5661 5.55835C6.8699 3.59862 7.87771 2.12206 9.58954 1.12866C10.2298 0.797937 10.9017 0.587 11.6052 0.49585ZM11.6989 1.94897C13.8615 1.79167 15.4162 2.68229 16.363 4.62085C17.0999 6.92607 16.4671 8.74637 14.4645 10.0818C13.2338 10.7059 11.9682 10.784 10.6677 10.3162C8.29522 9.06263 7.50618 7.14854 8.30047 4.57397C8.99361 3.12232 10.1264 2.24732 11.6989 1.94897Z" fill="#9E9E9E"/>
</g>
<g id="Group_2">
<path id="Vector_2" opacity="0.971" fill-rule="evenodd" clip-rule="evenodd" d="M18.9646 24.4958C14.6365 24.4958 10.3083 24.4958 5.98022 24.4958C4.4827 24.3034 3.41239 23.5221 2.76928 22.1521C2.62756 21.8051 2.53381 21.4457 2.48803 21.074C2.36214 19.2695 2.56526 17.5039 3.09741 15.7771C3.44682 14.6787 4.04838 13.749 4.90209 12.988C5.86359 12.2613 6.94172 11.9801 8.13647 12.1443C8.65224 12.4333 9.15225 12.7458 9.63647 13.0818C11.4241 14.1191 13.2366 14.166 15.074 13.2224C15.6442 12.8513 16.2224 12.4919 16.8083 12.1443C18.7304 11.953 20.1914 12.6795 21.1912 14.324C21.9412 15.7457 22.3631 17.2613 22.4568 18.8708C22.5242 19.6216 22.5242 20.3716 22.4568 21.1208C22.0809 23.0625 20.9168 24.1875 18.9646 24.4958ZM7.29272 13.5271C7.41867 13.5194 7.54369 13.5272 7.66772 13.5505C8.39667 14.048 9.16233 14.4854 9.96459 14.863C12.0365 15.6432 14.0365 15.4869 15.9646 14.3943C16.4021 14.113 16.8396 13.8318 17.2771 13.5505C18.4572 13.5434 19.34 14.0512 19.9255 15.074C20.5048 16.1402 20.8485 17.2808 20.9568 18.4958C21.0462 19.3397 21.0618 20.1834 21.0037 21.0271C20.7667 22.0609 20.1339 22.7094 19.1052 22.9724C18.8264 23.0227 18.5451 23.054 18.2615 23.0661C14.4021 23.0974 10.5427 23.0974 6.68334 23.0661C5.58033 23.1047 4.74441 22.6594 4.17553 21.7302C4.06919 21.4893 3.99106 21.2393 3.94116 20.9802C3.80357 19.209 4.03794 17.4903 4.64428 15.824C4.96294 15.0058 5.48639 14.3573 6.21459 13.8786C6.56574 13.7173 6.92513 13.6001 7.29272 13.5271Z" fill="#9E9E9E"/>
</g>
</g>
<defs>
<clipPath id="clip0_55_2817">
<rect width="24" height="24" fill="white" transform="translate(0.519287 0.519287)"/>
</clipPath>
</defs>
</svg>
