<svg width="24" height="24" viewBox="0 0 24 24" fill="none" xmlns="http://www.w3.org/2000/svg">
<g id="atm (4)">
<g id="Group">
<path id="Vector" opacity="0.986" fill-rule="evenodd" clip-rule="evenodd" d="M4.00781 1.47656C8.46099 1.46875 12.9141 1.47656 17.3672 1.5C18.4953 1.81574 19.1125 2.55792 19.2188 3.72656C19.2422 7.38277 19.25 11.039 19.2422 14.6953C17.3515 14.6875 15.4609 14.6953 13.5703 14.7188C12.4897 14.94 11.8257 15.5884 11.5781 16.6641C11.5547 18.1484 11.5469 19.6327 11.5547 21.1172C9.07027 21.125 6.58589 21.1172 4.10156 21.0938C3.00635 20.8423 2.35791 20.1626 2.15625 19.0547C2.125 13.8828 2.125 8.71092 2.15625 3.53906C2.35522 2.47306 2.97241 1.78555 4.00781 1.47656ZM5.92969 4.61719C9.10158 4.60937 12.2735 4.61719 15.4453 4.64063C15.8327 4.77797 16.0436 5.05144 16.0781 5.46094C16.1094 7.19531 16.1094 8.92969 16.0781 10.6641C16.0388 11.1268 15.7966 11.4158 15.3516 11.5313C12.2422 11.5625 9.1328 11.5625 6.02344 11.5313C5.69531 11.4498 5.46877 11.2545 5.34375 10.9453C5.31249 9.03905 5.31249 7.13283 5.34375 5.22656C5.45405 4.93664 5.64938 4.73353 5.92969 4.61719ZM5.78906 14.0391C7.03917 14.0312 8.28914 14.0391 9.53906 14.0625C10.0259 14.3198 10.1197 14.6792 9.82031 15.1406C9.70838 15.2279 9.58341 15.2903 9.44531 15.3281C8.25783 15.3594 7.0703 15.3594 5.88281 15.3281C5.43638 15.2093 5.2567 14.9202 5.34375 14.4609C5.43145 14.2503 5.57991 14.1097 5.78906 14.0391Z" fill="#DBDCDE"/>
</g>
<g id="Group_2">
<path id="Vector_2" opacity="0.984" fill-rule="evenodd" clip-rule="evenodd" d="M6.58594 5.92969C9.3203 5.92969 12.0547 5.92969 14.7891 5.92969C14.7891 7.3672 14.7891 8.80467 14.7891 10.2422C12.0547 10.2422 9.3203 10.2422 6.58594 10.2422C6.58594 8.80467 6.58594 7.3672 6.58594 5.92969Z" fill="#DBDCDE"/>
</g>
<g id="Group_3">
<path id="Vector_3" opacity="0.974" fill-rule="evenodd" clip-rule="evenodd" d="M13.6171 15.7734C16.0078 15.7656 18.3984 15.7734 20.789 15.7969C21.3765 15.9324 21.7125 16.2997 21.7968 16.8984C21.8202 17.1323 21.828 17.3667 21.8202 17.6016C18.7577 17.6016 15.6952 17.6016 12.6327 17.6016C12.4911 16.9564 12.663 16.4174 13.1483 15.9844C13.3037 15.8986 13.46 15.8283 13.6171 15.7734Z" fill="#DBDCDE"/>
</g>
<g id="Group_4">
<path id="Vector_4" opacity="0.987" fill-rule="evenodd" clip-rule="evenodd" d="M12.6328 18.9141C15.6953 18.9141 18.7578 18.9141 21.8203 18.9141C21.8281 19.7423 21.8203 20.5704 21.7969 21.3984C21.7096 21.9388 21.4049 22.2904 20.8828 22.4531C18.4297 22.4844 15.9766 22.4844 13.5234 22.4531C13.0578 22.3156 12.7688 22.011 12.6563 21.5391C12.6328 20.6642 12.625 19.7892 12.6328 18.9141Z" fill="#DBDCDE"/>
</g>
</g>
</svg>
