<svg width="240" height="21" viewBox="0 0 240 21" fill="none" xmlns="http://www.w3.org/2000/svg">
<g id="app-logo.e0db2ba 1" clip-path="url(#clip0_8_563)">
<g id="Group">
<path id="Vector" d="M9.205 11.072L6.426 10.405C3.008 9.566 0.868004 8.348 0.868004 5.28C0.868004 2.212 3.847 0.0110016 7.468 0.0110016C10.768 0.0110016 13.343 1.545 14.499 3.902L14.238 4.102C13.126 1.756 10.592 0.311001 7.468 0.311001C4.344 0.311001 2.021 2.017 2.021 4.758C2.021 7.499 4.133 8.377 6.801 9.044L9.375 9.711C12.821 10.578 15.111 11.995 15.111 14.953C15.111 18.844 11.637 20.853 8.074 20.853C4.511 20.853 1.098 19.053 -0.0019989 16.017L0.254002 15.872C1.367 18.887 4.575 20.561 8.08 20.561C11.871 20.561 13.955 18.338 13.955 15.697C13.98 12.806 11.75 11.678 9.205 11.072Z" fill="white"/>
<path id="Vector_2" d="M20.611 20.566H19.132V0.317001H20.611V20.566Z" fill="white"/>
<path id="Vector_3" d="M26.286 0.317001H39.07V0.634003H27.759V10H36.302V10.322H27.759V20.249H39.37V20.566H26.286V0.317001Z" fill="white"/>
<path id="Vector_4" d="M59.436 0.317001H59.753V20.883H59.636L43.856 2.412V20.57H43.539V0H43.656L59.436 18.415V0.317001Z" fill="white"/>
<path id="Vector_5" d="M81.319 0.317001H81.641V20.883H81.524L65.744 2.412V20.57H65.427V0H65.538L81.318 18.415L81.319 0.317001Z" fill="white"/>
<path id="Vector_6" d="M98.2 13.212H88.412L85.255 20.57H84.921L93.721 0.0039978H93.815L102.936 20.57H101.457L98.2 13.212ZM93.2 2.034L88.537 12.895H98.064L93.2 2.034Z" fill="white"/>
<path id="Vector_7" d="M120.778 0.0110032C122.423 -0.0751065 124.052 0.374516 125.42 1.29242C126.788 2.21033 127.821 3.54703 128.365 5.102L128.104 5.219C127.575 3.71985 126.576 2.43142 125.256 1.5452C123.936 0.658986 122.366 0.222285 120.778 0.300001C116.003 0.300001 112.678 3.857 112.678 10.433C112.678 17.009 116.009 20.561 120.778 20.561C122.372 20.6541 123.954 20.2313 125.29 19.3553C126.625 18.4793 127.643 17.1966 128.193 15.697L128.454 15.814C127.88 17.3631 126.825 18.6877 125.444 19.5939C124.063 20.5001 122.428 20.9403 120.778 20.85C115.364 20.878 111.045 16.431 111.045 10.428C111.045 4.425 115.364 0.0110032 120.778 0.0110032Z" fill="white"/>
<path id="Vector_8" d="M132.128 0.317001H133.607V10H147.731V0.317001H149.21V20.566H147.731V10.322H133.607V20.566H132.128V0.317001Z" fill="white"/>
<path id="Vector_9" d="M165.74 13.212H155.96L152.8 20.57H152.45L161.25 0.0039978H161.367L170.493 20.57H169.014L165.74 13.212ZM160.74 2.034L156.071 12.895H165.598L160.74 2.034Z" fill="white"/>
<path id="Vector_10" d="M175.231 20.566H173.761V0.317001H180.592C184.677 0.317001 188.374 1.707 188.374 5.759C188.374 9.65 184.667 11.089 182.41 11.145V11.201C184.928 11.462 186.262 12.535 186.984 14.536L188.235 18.104C188.524 19.0393 189.031 19.8927 189.714 20.594H187.974C187.487 19.8473 187.098 19.0406 186.818 18.194L185.601 14.859C184.734 12.452 183.461 11.296 180.301 11.296H175.231V20.566ZM175.231 10.956H180.823C183.923 10.956 186.643 9.939 186.643 5.742C186.643 2.035 184.27 0.617001 180.796 0.617001H175.238L175.231 10.956Z" fill="white"/>
<path id="Vector_11" d="M193.738 0.317001H195.211V20.249H206.244V20.566H193.738V0.317001Z" fill="white"/>
<path id="Vector_12" d="M209.985 0.317001H222.769V0.634003H211.452V10H219.99V10.322H211.452V20.249H223.064V20.566H209.985V0.317001Z" fill="white"/>
<path id="Vector_13" d="M234.064 11.072L231.313 10.405C227.9 9.566 225.755 8.348 225.755 5.28C225.755 2.212 228.74 0.0110016 232.355 0.0110016C235.655 0.0110016 238.23 1.545 239.392 3.902L239.131 4.102C238.019 1.756 235.479 0.311001 232.355 0.311001C229.231 0.311001 226.913 2.017 226.913 4.758C226.913 7.499 229.025 8.377 231.688 9.044L234.267 9.711C237.708 10.578 239.998 11.99 239.998 14.953C239.998 18.844 236.524 20.853 232.961 20.853C229.398 20.853 225.985 19.053 224.885 16.017L225.146 15.872C226.258 18.885 229.459 20.563 232.961 20.563C236.761 20.563 238.842 18.34 238.842 15.699C238.844 12.806 236.615 11.678 234.064 11.072Z" fill="white"/>
</g>
</g>
<defs>
<clipPath id="clip0_8_563">
<rect width="240" height="20.883" fill="white"/>
</clipPath>
</defs>
</svg>
